<svg id="Layer_1" height="512" viewBox="0 0 128 128" width="512" xmlns="http://www.w3.org/2000/svg" xmlns:xlink="http://www.w3.org/1999/xlink" data-name="Layer 1"><linearGradient id="linear-gradient" gradientUnits="userSpaceOnUse" x1="103.711" x2="20.979" y1="122.789" y2="40.057"><stop offset="0" stop-color="#f55138"/><stop offset="1" stop-color="#24d5dc"/></linearGradient><path d="m37.329 100.613v12.333a1.75 1.75 0 0 1 -3.5 0v-12.333a1.75 1.75 0 1 1 3.5 0zm8.318-80.526a1.741 1.741 0 0 0 .842-.217l.47-.254a1.75 1.75 0 0 0 -1.643-3.091l-.516.275a1.75 1.75 0 0 0 .845 3.284zm67.181 63.889v28.971a1.75 1.75 0 1 1 -3.5 0v-27.221h-6.5a1.75 1.75 0 0 1 -1.75-1.75v-6.5h-22v3.324a1.739 1.739 0 0 1 0 .39v31.753a1.75 1.75 0 1 1 -3.5 0v-27.5l-4.981 5.205a1.75 1.75 0 0 1 -2.43.1l-.864-.771-3.291 3.683 4.89 18.843a1.75 1.75 0 1 1 -3.389.879l-3.43-13.222-3.431 13.222a1.75 1.75 0 0 1 -3.388-.879l4.89-18.843-3.291-3.683-.865.772a1.75 1.75 0 0 1 -2.429-.1l-3.857-4.031a1.75 1.75 0 1 1 2.528-2.42l2.689 2.81 3.914-3.493-5.343-2.215-23.553 5.28a14.116 14.116 0 0 0 -11.276 13.631v12.736a1.75 1.75 0 1 1 -3.5 0v-12.736a17.6 17.6 0 0 1 14-17.045l22.858-5.122.567-6.229a22.741 22.741 0 0 1 -12.51-15.443 6.495 6.495 0 0 1 -1.464-12.429c-2.73-6.93-3.113-16.672 1.519-23.017a1.75 1.75 0 1 1 2.827 2.063c-3.893 5.334-3.473 14.237-.828 20.339 3.922-.49 16.592-2.525 24.515-9.056a1.753 1.753 0 0 1 2.4.167 39.677 39.677 0 0 0 9.106 7.083 1.75 1.75 0 1 1 -1.656 3.083 41.976 41.976 0 0 1 -8.895-6.646c-8.402 6.188-20.167 8.222-24.61 8.794v4.524a19.158 19.158 0 1 0 38.317 0v-6.4a1.736 1.736 0 0 1 .341-1.029c1.244-4.207 3.017-13.718-.677-18.216-1.871-2.276-5.09-3.142-9.563-2.57a1.742 1.742 0 0 1 -1.586-.64 17.124 17.124 0 0 0 -18.2-4.757 1.75 1.75 0 0 1 -1.012-3.351 20.627 20.627 0 0 1 21.278 5.174c5.286-.483 9.255.832 11.795 3.927 4.771 5.814 2.726 16.164 1.6 20.434a6.493 6.493 0 0 1 -1.053 12.497 22.74 22.74 0 0 1 -12.677 15.539l.56 6.158 3.451.773v-3.09a1.75 1.75 0 0 1 1.75-1.75h25.5a1.75 1.75 0 0 1 1.237.513l8.25 8.25a1.75 1.75 0 0 1 .517 1.237zm-26.758-34.02a2.993 2.993 0 0 0 -1.252-2.428v3.75q0 .569-.029 1.13a3 3 0 0 0 1.281-2.452zm-46.534 2.556c-.022-.409-.035-.82-.035-1.235v-3.859a2.981 2.981 0 0 0 .035 5.094zm15.985 25.838 6.558 2.73 6.557-2.73-.475-5.227a22.551 22.551 0 0 1 -12.161-.045zm9.167 9.3-2.609-2.329-2.609 2.329 2.609 2.92zm9.3-5.6-3.333-.75-5.336 2.222 3 2.682.906.809zm30.591.179h2.275l-2.275-2.275zm-1.7 6.471h-17.359a1.75 1.75 0 0 0 0 3.5h17.363a1.75 1.75 0 0 0 0-3.5zm0 7.167h-.8a1.75 1.75 0 0 0 0 3.5h.8a1.75 1.75 0 0 0 0-3.5zm-17.363 3.5h10.734a1.75 1.75 0 0 0 0-3.5h-10.73a1.75 1.75 0 0 0 0 3.5zm17.363 3.667h-17.359a1.75 1.75 0 0 0 0 3.5h17.363a1.75 1.75 0 0 0 0-3.5z" fill="url(#linear-gradient)"/></svg>