<?xml version="1.0" encoding="iso-8859-1"?>
<!-- Generator: Adobe Illustrator 19.0.0, SVG Export Plug-In . SVG Version: 6.00 Build 0)  -->
<svg version="1.1" id="Capa_1" xmlns="http://www.w3.org/2000/svg" xmlns:xlink="http://www.w3.org/1999/xlink" x="0px" y="0px"
	 viewBox="0 0 512 512" style="enable-background:new 0 0 512 512;" xml:space="preserve">
<path style="fill:#303C42;" d="M256,0C114.844,0,0,114.844,0,256s114.844,256,256,256s256-114.844,256-256S397.156,0,256,0z"/>
<path style="fill:#15BEF0;" d="M256,490.667C126.604,490.667,21.333,385.396,21.333,256S126.604,21.333,256,21.333
	S490.667,126.604,490.667,256S385.396,490.667,256,490.667z"/>
<path style="opacity:0.2;fill:#FFFFFF;enable-background:new    ;" d="M32,277.333C32,147.938,137.271,42.667,266.667,42.667
	c87.715,0,164.224,48.452,204.49,119.923C434.969,79.568,352.197,21.333,256,21.333C126.604,21.333,21.333,126.604,21.333,256
	c0,41.681,11.043,80.781,30.177,114.743C39.021,342.091,32,310.533,32,277.333z"/>
<path style="fill:#303C42;" d="M384,170.667h-21.333v-53.333c0-5.896-4.771-10.667-10.667-10.667H160
	c-5.896,0-10.667,4.771-10.667,10.667v53.333H128c-23.531,0-42.667,19.135-42.667,42.667v64C85.333,300.865,104.469,320,128,320
	h21.333v74.667c0,5.896,4.771,10.667,10.667,10.667h192c5.896,0,10.667-4.771,10.667-10.667V320H384
	c23.531,0,42.667-19.135,42.667-42.667v-64C426.667,189.802,407.531,170.667,384,170.667z"/>
<g>
	<rect x="170.667" y="128" style="fill:#FFFFFF;" width="170.667" height="42.667"/>
	<rect x="170.667" y="277.333" style="fill:#FFFFFF;" width="170.667" height="106.667"/>
</g>
<path style="fill:#455A64;" d="M405.333,277.333c0,11.76-9.573,21.333-21.333,21.333h-21.333v-21.333h10.667
	c5.896,0,10.667-4.771,10.667-10.667c0-5.896-4.771-10.667-10.667-10.667H138.667c-5.896,0-10.667,4.771-10.667,10.667
	c0,5.896,4.771,10.667,10.667,10.667h10.667v21.333H128c-11.76,0-21.333-9.573-21.333-21.333v-64
	c0-11.76,9.573-21.333,21.333-21.333h256c11.76,0,21.333,9.573,21.333,21.333V277.333z"/>
<path style="opacity:0.2;fill:#FFFFFF;enable-background:new    ;" d="M128,294.221v-53.586c0-17.534,14.214-31.747,31.746-31.747
	h244.688C402.327,199.326,394.185,192,384,192H128c-11.76,0-21.333,9.573-21.333,21.333v64c0,11.76,9.573,21.333,21.333,21.333
	h0.897C128.573,297.188,128,295.798,128,294.221z"/>
<circle style="fill:#7CB342;" cx="373.333" cy="224" r="10.667"/>
<linearGradient id="SVGID_1_" gradientUnits="userSpaceOnUse" x1="-36.7031" y1="635.4844" x2="-30.2031" y2="628.9844" gradientTransform="matrix(21.3333 0 0 -21.3333 996.3334 13791.667)">
	<stop  offset="0" style="stop-color:#000000;stop-opacity:0.1"/>
	<stop  offset="1" style="stop-color:#000000;stop-opacity:0"/>
</linearGradient>
<polygon style="fill:url(#SVGID_1_);" points="170.667,277.333 277.333,384 341.333,384 341.333,277.333 "/>
<g>
	<path style="fill:#303C42;" d="M309.333,298.667H202.667c-5.896,0-10.667,4.771-10.667,10.667S196.771,320,202.667,320h106.667
		c5.896,0,10.667-4.771,10.667-10.667S315.229,298.667,309.333,298.667z"/>
	<path style="fill:#303C42;" d="M309.333,341.333H202.667c-5.896,0-10.667,4.771-10.667,10.667c0,5.896,4.771,10.667,10.667,10.667
		h106.667c5.896,0,10.667-4.771,10.667-10.667C320,346.104,315.229,341.333,309.333,341.333z"/>
</g>
<linearGradient id="SVGID_2_" gradientUnits="userSpaceOnUse" x1="-45.5784" y1="639.555" x2="-23.8278" y2="629.4138" gradientTransform="matrix(21.3333 0 0 -21.3333 996.3334 13791.667)">
	<stop  offset="0" style="stop-color:#FFFFFF;stop-opacity:0.2"/>
	<stop  offset="1" style="stop-color:#FFFFFF;stop-opacity:0"/>
</linearGradient>
<path style="fill:url(#SVGID_2_);" d="M256,0C114.844,0,0,114.844,0,256s114.844,256,256,256s256-114.844,256-256S397.156,0,256,0z"
	/>
<g>
</g>
<g>
</g>
<g>
</g>
<g>
</g>
<g>
</g>
<g>
</g>
<g>
</g>
<g>
</g>
<g>
</g>
<g>
</g>
<g>
</g>
<g>
</g>
<g>
</g>
<g>
</g>
<g>
</g>
</svg>
